<?xml version="1.0" encoding="UTF-8"?>
<svg version="1.1" xmlns="http://www.w3.org/2000/svg" width="512" height="512">
<path d="M0 0 C25.87011028 23.54535781 39.82354128 54.22266527 41.6875 89.0625 C41.80930019 91.708226 41.91021571 94.35291142 42 97 C43.00417969 97.44988281 44.00835937 97.89976562 45.04296875 98.36328125 C66.53365165 108.33468341 82.25577125 124.75085987 90.97265625 147.02734375 C93.79821328 155.20319508 95.54898028 163.36228898 96 172 C96.07927734 173.22203125 96.07927734 173.22203125 96.16015625 174.46875 C96.96960371 197.83714622 87.61876848 219.91455969 72 237 C56.41724796 253.02500043 35.37600416 262.38869648 13.03596556 263.09351385 C9.54355461 263.13152552 6.05238653 263.13807297 2.55976868 263.13371277 C1.20904371 263.13558371 -0.14168071 263.13788554 -1.49240428 263.14057809 C-5.184764 263.14666756 -8.87710098 263.14656587 -12.56946456 263.14538372 C-16.55939 263.14517898 -20.54930828 263.15070539 -24.53923035 263.15544128 C-32.34928595 263.16373288 -40.159334 263.16649546 -47.96939363 263.16705366 C-54.32108155 263.16752956 -60.67276699 263.16958798 -67.02445412 263.17275429 C-85.05107208 263.18155702 -103.07768409 263.18617429 -121.10430422 263.18542381 C-122.07527201 263.18538386 -123.0462398 263.1853439 -124.04663086 263.18530273 C-125.50487054 263.18524141 -125.50487054 263.18524141 -126.9925696 263.18517885 C-142.74147477 263.18477256 -158.49035601 263.19433899 -174.23925426 263.2084411 C-190.42816614 263.22282228 -206.61706637 263.22971032 -222.8059848 263.22884732 C-231.88753477 263.22851594 -240.96905966 263.23123718 -250.05060387 263.24202538 C-257.78384404 263.25115334 -265.51704777 263.25328684 -273.25029101 263.24651595 C-277.19125703 263.24326223 -281.13215321 263.24315229 -285.07311249 263.2518692 C-288.68987167 263.25978631 -292.30650624 263.25825024 -295.92326257 263.24958507 C-297.8321918 263.2473468 -299.74112506 263.25483763 -301.6500389 263.26282471 C-327.34559878 263.1613818 -349.08711087 255.14871084 -367.765625 237.3671875 C-384.25604609 220.01683648 -392.44932196 197.99643458 -392.1484375 174.2265625 C-391.04738618 150.29318379 -381.1619173 129.18901142 -363.87890625 112.640625 C-345.25943764 96.38246114 -323.23712529 90.69363184 -299 91 C-298.45472656 89.97261719 -297.90945313 88.94523437 -297.34765625 87.88671875 C-285.83797375 66.57936745 -270.80718868 51.71395791 -247.5859375 43.96484375 C-241.4537548 42.31489917 -235.31863918 41.52594453 -229 41 C-227.83791016 40.89171875 -227.83791016 40.89171875 -226.65234375 40.78125 C-219.36507521 40.44426648 -212.06639661 42.27704332 -204.94384766 43.63623047 C-202.30233228 44.13056078 -199.65260898 44.56973429 -197 45 C-196.30777344 43.51113281 -196.30777344 43.51113281 -195.6015625 41.9921875 C-181.10250582 11.50524736 -156.6961177 -11.94980736 -124.86767578 -23.79345703 C-82.17938649 -38.77232315 -33.98219675 -30.19486795 0 0 Z " fill="#0D90E3" transform="translate(404,140)"/>
</svg>
